<svg id="Capa_1" data-name="Capa 1" xmlns="http://www.w3.org/2000/svg" viewBox="0 0 1524.47 256.28"><defs><style>.cls-1{fill:#e6e6e6;}</style></defs><polygon class="cls-1" points="134.73 0 176.37 84.36 269.47 97.89 202.1 163.56 218 256.28 134.73 212.5 51.46 256.28 67.37 163.56 0 97.89 93.1 84.36 134.73 0"/><polygon class="cls-1" points="441.73 0 483.37 84.36 576.47 97.89 509.1 163.56 525 256.28 441.73 212.5 358.46 256.28 374.37 163.56 307 97.89 400.1 84.36 441.73 0"/><polygon class="cls-1" points="757.73 0 799.37 84.36 892.47 97.89 825.1 163.56 841 256.28 757.73 212.5 674.46 256.28 690.37 163.56 623 97.89 716.1 84.36 757.73 0"/><polygon class="cls-1" points="1073.73 0 1115.37 84.36 1208.47 97.89 1141.1 163.56 1157 256.28 1073.73 212.5 990.46 256.28 1006.37 163.56 939 97.89 1032.1 84.36 1073.73 0"/><polygon class="cls-1" points="1389.73 0 1431.37 84.36 1524.47 97.89 1457.1 163.56 1473 256.28 1389.73 212.5 1306.46 256.28 1322.37 163.56 1255 97.89 1348.1 84.36 1389.73 0"/></svg>